HIERARCHY
ROOT Hips
{
	OFFSET 0.00000 0.00000 0.00000
	CHANNELS 6 Xposition Yposition Zposition Zrotation Yrotation Xrotation 
	JOINT LHipJoint
	{
		OFFSET 0 0 0
		CHANNELS 3 Zrotation Yrotation Xrotation
		JOINT LeftUpLeg
		{
			OFFSET 1.30186 -1.90722 0.65024
			CHANNELS 3 Zrotation Yrotation Xrotation
			JOINT LeftLeg
			{
				OFFSET 2.56413 -7.04489 0.00000
				CHANNELS 3 Zrotation Yrotation Xrotation
				JOINT LeftFoot
				{
					OFFSET 2.79321 -7.67428 0.00000
					CHANNELS 3 Zrotation Yrotation Xrotation
					JOINT LeftToeBase
					{
						OFFSET 0.15723 -0.43198 2.08537
						CHANNELS 3 Zrotation Yrotation Xrotation
						End Site
						{
							OFFSET 0.00000 -0.00000 1.07411
						}
					}
				}
			}
		}
	}
	JOINT RHipJoint
	{
		OFFSET 0 0 0
		CHANNELS 3 Zrotation Yrotation Xrotation
		JOINT RightUpLeg
		{
			OFFSET -1.28627 -1.90723 0.65024
			CHANNELS 3 Zrotation Yrotation Xrotation
			JOINT RightLeg
			{
				OFFSET -2.56567 -7.04913 0.00000
				CHANNELS 3 Zrotation Yrotation Xrotation
				JOINT RightFoot
				{
					OFFSET -2.75597 -7.57198 0.00000
					CHANNELS 3 Zrotation Yrotation Xrotation
					JOINT RightToeBase
					{
						OFFSET -0.17500 -0.48081 2.22901
						CHANNELS 3 Zrotation Yrotation Xrotation
						End Site
						{
							OFFSET -0.00000 -0.00000 1.14762
						}
					}
				}
			}
		}
	}
	JOINT LowerBack
	{
		OFFSET 0 0 0
		CHANNELS 3 Zrotation Yrotation Xrotation
		JOINT Spine
		{
			OFFSET -0.04522 2.07467 -0.16566
			CHANNELS 3 Zrotation Yrotation Xrotation
			JOINT Spine1
			{
				OFFSET -0.01178 2.08825 -0.05393
				CHANNELS 3 Zrotation Yrotation Xrotation
				JOINT Neck
				{
					OFFSET 0 0 0
					CHANNELS 3 Zrotation Yrotation Xrotation
					JOINT Neck1
					{
						OFFSET -0.05182 1.80489 0.16014
						CHANNELS 3 Zrotation Yrotation Xrotation
						JOINT Head
						{
							OFFSET 0.14739 1.78840 -0.33342
							CHANNELS 3 Zrotation Yrotation Xrotation
							End Site
							{
								OFFSET 0.04364 1.83899 -0.13460
							}
						}
					}
				}
				JOINT LeftShoulder
				{
					OFFSET 0 0 0
					CHANNELS 3 Zrotation Yrotation Xrotation
					JOINT LeftArm
					{
						OFFSET 3.01264 1.29090 -0.06579
						CHANNELS 3 Zrotation Yrotation Xrotation
						JOINT LeftForeArm
						{
							OFFSET 5.55680 -0.00000 0.00000
							CHANNELS 3 Zrotation Yrotation Xrotation
							JOINT LeftHand
							{
								OFFSET 3.63979 -0.00000 -0.00000
								CHANNELS 3 Zrotation Yrotation Xrotation
								JOINT LeftFingerBase
								{
									OFFSET 0 0 0
									CHANNELS 3 Zrotation Yrotation Xrotation
									JOINT LeftHandIndex1
									{
										OFFSET 0.56942 -0.00000 -0.00000
										CHANNELS 3 Zrotation Yrotation Xrotation
										End Site
										{
											OFFSET 0.45908 -0.00000 -0.00000
										}
									}
								}
								JOINT LThumb
								{
									OFFSET 0 0 0
									CHANNELS 3 Zrotation Yrotation Xrotation
									End Site
									{
										OFFSET 0.46609 -0.00000 0.46609
									}
								}
							}
						}
					}
				}
				JOINT RightShoulder
				{
					OFFSET 0 0 0
					CHANNELS 3 Zrotation Yrotation Xrotation
					JOINT RightArm
					{
						OFFSET -3.15796 1.37283 -0.36748
						CHANNELS 3 Zrotation Yrotation Xrotation
						JOINT RightForeArm
						{
							OFFSET -5.34339 -0.00000 0.00000
							CHANNELS 3 Zrotation Yrotation Xrotation
							JOINT RightHand
							{
								OFFSET -3.65101 -0.00000 -0.00000
								CHANNELS 3 Zrotation Yrotation Xrotation
								JOINT RightFingerBase
								{
									OFFSET 0 0 0
									CHANNELS 3 Zrotation Yrotation Xrotation
									JOINT RightHandIndex1
									{
										OFFSET -0.69425 -0.00000 -0.00000
										CHANNELS 3 Zrotation Yrotation Xrotation
										End Site
										{
											OFFSET -0.55972 -0.00000 -0.00000
										}
									}
								}
								JOINT RThumb
								{
									OFFSET 0 0 0
									CHANNELS 3 Zrotation Yrotation Xrotation
									End Site
									{
										OFFSET -0.56827 -0.00000 0.56827
									}
								}
							}
						}
					}
				}
			}
		}
	}
}
MOTION
Frames: 14
Frame Time: .0083333
16.0931 18.3196 3.3540 -5.8304 -0.7640 0.5816 0.0000 0.0000 0.0000 -2.7417 -16.2282 -41.2749 1.5901 7.9544 22.5756 -0.0097 6.2504 -8.6545 0.7212 -5.4267 -15.1296 0.0000 0.0000 0.0000 30.3153 -0.4035 21.7290 -0.0426 -1.3322 3.6634 -0.1232 0.9848 -6.3542 -0.1276 2.3027 -6.3430 6.8796 1.5591 2.0534 2.8372 2.2490 0.3618 -0.9833 1.1110 -0.6294 -5.3867 -3.2349 -8.1899 0.4427 -3.6977 13.6285 0.7505 -2.0443 5.5751 -0.0000 -0.0000 0.0000 -66.9033 -60.6072 22.2950 21.5641 -32.4809 -6.3502 -0.0000 0.0000 -28.1224 20.8386 16.9650 6.3376 -7.1250 0.0000 -0.0000 -6.8030 47.9398 -0.4956 -0.0000 -0.0000 0.0000 91.9594 -6.6094 -31.5545 -5.4886 9.4065 -0.4519 0.0000 0.0000 33.3256 -19.6753 30.1440 -10.1796 7.1250 -0.0000 -0.0000 6.5677 1.4986 6.7815
16.1130 18.3051 3.5466 -6.0316 -1.2677 0.5356 0.0000 0.0000 0.0000 -2.8322 -15.8416 -40.5459 1.6483 8.0916 22.9925 -0.0239 6.1335 -8.0686 0.8009 -5.7119 -15.9509 0.0000 0.0000 0.0000 30.4730 -0.1179 21.5202 -0.0934 -1.9709 5.4252 -0.1324 1.4407 -6.5194 -0.2905 3.4660 -9.5790 6.9561 1.6804 1.9611 2.7926 2.4018 0.3708 -1.0707 1.1892 -0.5529 -5.3395 -3.3171 -8.5950 0.4844 -3.7961 14.0332 0.7389 -2.0910 5.7739 -0.0000 -0.0000 0.0000 -67.0232 -59.7621 22.9102 21.8809 -32.8421 -6.5211 -0.0000 0.0000 -28.3180 21.1025 17.2491 6.5283 -7.1250 0.0000 -0.0000 -6.6232 48.2756 -0.5374 -0.0000 -0.0000 0.0000 92.1504 -5.9550 -30.7046 -5.5784 9.5572 -0.4667 0.0000 0.0000 32.6501 -19.3345 29.9501 -9.9358 7.1250 -0.0000 -0.0000 6.7409 1.2373 6.9327
16.1377 18.2830 3.7381 -6.0732 -1.5778 0.7437 0.0000 0.0000 0.0000 -3.0394 -15.6709 -40.0927 1.7209 8.2588 23.5031 -0.0395 6.0414 -7.4222 0.7944 -5.6894 -15.8858 0.0000 0.0000 0.0000 30.4276 0.0250 21.3068 -0.1415 -2.4244 6.6800 -0.1230 1.7262 -6.2468 -0.4777 4.4326 -12.2970 6.9057 1.7486 1.5866 2.6968 2.4608 0.2794 -1.1309 1.2204 -0.4308 -5.3601 -3.3464 -8.5355 0.6383 -3.8601 14.0362 0.7865 -2.1125 5.7697 0.0000 -0.0000 0.0000 -67.2955 -58.8506 23.6163 22.1270 -33.1203 -6.6551 -0.0000 0.0000 -28.6612 21.3115 16.9222 6.4783 -7.1250 0.0000 -0.0000 -6.3426 47.9635 -0.4655 0.0000 -0.0000 0.0000 92.2925 -5.2538 -30.4625 -5.6224 9.6310 -0.4740 0.0000 0.0000 33.0594 -19.2461 29.6294 -9.7933 7.1250 -0.0000 -0.0000 6.7542 0.8954 6.9068
16.1666 18.2627 3.9282 -6.0110 -1.9043 1.1572 0.0000 0.0000 0.0000 -3.4293 -15.4284 -39.8098 1.8004 8.4374 24.0508 -0.0564 6.0700 -6.8691 0.9880 -6.3264 -17.7344 0.0000 0.0000 0.0000 30.2243 0.2652 21.0107 -0.1898 -2.8057 7.7383 -0.1154 2.0228 -6.0341 -0.4873 4.4760 -12.4199 6.7798 1.8872 1.0647 2.5800 2.6036 0.1178 -1.1669 1.2926 -0.2948 -5.3330 -3.3428 -8.4775 0.8024 -3.8877 14.0183 0.8327 -2.1128 5.7572 0.0000 -0.0000 0.0000 -68.0470 -57.9788 24.5080 22.3324 -33.3507 -6.7677 -0.0000 0.0000 -28.6857 21.0332 16.6931 6.3030 -7.1250 0.0000 -0.0000 -6.5512 47.6831 -0.4355 0.0000 -0.0000 0.0000 92.4217 -4.6283 -30.0729 -5.6971 9.7560 -0.4866 0.0000 0.0000 33.0712 -19.1725 29.0685 -9.5885 7.1250 -0.0000 -0.0000 6.7323 0.3122 6.8160
16.1930 18.2399 4.1320 -5.8775 -2.2504 1.2541 0.0000 0.0000 0.0000 -4.0534 -15.1389 -39.0589 1.8820 8.6158 24.6008 -0.0724 6.1851 -6.4525 1.1397 -6.7795 -19.0637 0.0000 0.0000 0.0000 29.9427 0.3854 20.9347 -0.2569 -3.2609 9.0059 -0.1207 2.2888 -6.1683 -0.4192 4.1558 -11.5153 6.5832 1.9799 0.7474 2.4423 2.6988 0.0611 -1.1890 1.3426 -0.1709 -5.3900 -3.3358 -8.7967 1.0441 -3.8881 14.3565 0.9106 -2.1009 5.9238 0.0000 0.0000 0.0000 -68.7228 -57.0196 25.0727 22.5290 -33.5698 -6.8761 -0.0000 0.0000 -28.5068 20.7140 17.0858 6.3396 -7.1250 0.0000 -0.0000 -6.9520 48.0479 -0.5251 0.0000 0.0000 0.0000 92.6192 -4.3530 -26.4804 -5.9687 10.2099 -0.5337 0.0000 0.0000 29.4860 -19.4213 28.8105 -9.6430 7.1250 -0.0000 -0.0000 6.5575 0.0954 6.6118
16.2253 18.2111 4.3481 -5.5402 -2.6909 1.2027 0.0000 0.0000 0.0000 -4.9126 -14.9069 -38.0102 1.9783 8.8208 25.2363 -0.0880 6.4559 -6.3525 1.0728 -6.5842 -18.4893 0.0000 0.0000 0.0000 29.4076 0.4956 21.1089 -0.3272 -3.6764 10.1681 -0.1243 2.5404 -6.2645 -0.3490 3.7959 -10.5031 6.2989 2.1506 0.4355 2.2452 2.8967 0.0557 -1.2210 1.4463 0.0083 -5.6534 -3.4097 -8.9755 1.3071 -3.9800 14.6497 1.0241 -2.1424 6.0612 -0.0000 -0.0000 0.0000 -69.7637 -56.0355 25.8518 22.6623 -33.7174 -6.9499 -0.0000 0.0000 -28.3498 20.6517 17.4249 6.4395 -7.1250 0.0000 -0.0000 -7.0988 48.3925 -0.5969 -0.0000 -0.0000 0.0000 92.7055 -3.8855 -24.2032 -6.1065 10.4396 -0.5584 0.0000 0.0000 27.3027 -19.7323 29.0080 -9.8673 7.1250 -0.0000 -0.0000 6.3985 0.3541 6.4783
16.2580 18.1786 4.5645 -5.3594 -3.2050 1.2402 0.0000 0.0000 0.0000 -5.6518 -14.4831 -37.0699 2.0926 9.0563 25.9716 -0.0963 6.6749 -6.4728 1.0576 -6.5388 -18.3559 0.0000 0.0000 0.0000 29.0121 0.5980 21.3432 -0.3892 -4.0061 11.0938 -0.1184 2.9674 -6.1488 -0.4206 4.1624 -11.5340 6.0899 2.4004 0.0031 2.1145 3.1906 0.0896 -1.2166 1.6010 0.3019 -5.8313 -3.5604 -9.0365 1.5300 -4.1895 14.6679 1.1049 -2.2368 6.0937 -0.0000 -0.0000 0.0000 -70.7850 -55.1751 26.8192 22.7319 -33.7944 -6.9886 -0.0000 0.0000 -28.4440 20.4574 17.1409 6.2740 -7.1250 0.0000 -0.0000 -7.2101 48.0679 -0.5484 -0.0000 -0.0000 0.0000 92.7782 -2.6469 -27.4000 -5.8688 10.0432 -0.5161 0.0000 0.0000 30.5831 -19.6038 29.3877 -9.9136 7.1250 -0.0000 -0.0000 6.5180 0.7166 6.6419
16.2849 18.1439 4.7767 -5.3176 -3.6793 1.1376 0.0000 0.0000 0.0000 -6.2701 -14.0539 -36.0081 2.2202 9.3104 26.7712 -0.0916 6.7910 -6.9181 1.0743 -6.5887 -18.5024 0.0000 0.0000 0.0000 28.9633 0.9772 21.8507 -0.4547 -4.3261 11.9958 -0.1090 3.0667 -5.9252 -0.6207 5.0418 -14.0278 5.9144 2.5845 -0.1536 1.9923 3.4215 0.1294 -1.2327 1.7203 0.4432 -5.7294 -3.6834 -9.1574 1.7095 -4.3937 14.6225 1.1262 -2.3157 6.1089 0.0000 -0.0000 0.0000 -71.4933 -54.1186 27.6216 22.8655 -33.9414 -7.0631 -0.0000 0.0000 -28.4756 20.1941 16.6944 6.0315 -7.1250 0.0000 -0.0000 -7.3454 47.5652 -0.4673 0.0000 -0.0000 0.0000 92.9892 -1.0747 -34.0220 -5.4363 9.3187 -0.4434 0.0000 0.0000 37.0160 -19.4616 29.9289 -9.9986 7.1250 -0.0000 -0.0000 6.6649 1.2397 6.8537
16.3114 18.1055 4.9900 -5.2976 -4.1262 1.1198 0.0000 0.0000 0.0000 -6.8022 -13.7098 -35.0507 2.3623 9.5831 27.6368 -0.0749 6.7735 -7.5055 1.0992 -6.6621 -18.7181 0.0000 0.0000 0.0000 28.8284 1.2531 22.1830 -0.5244 -4.6408 12.8869 -0.0860 3.3138 -5.3607 -0.7461 5.5176 -15.3908 5.8062 2.7763 -0.2886 1.8875 3.6717 0.0371 -1.2721 1.8435 0.4401 -5.7758 -3.7697 -9.1569 1.9005 -4.5350 14.6475 1.1821 -2.3726 6.1273 -0.0000 -0.0000 0.0000 -72.4228 -52.7564 28.7367 23.1302 -34.2309 -7.2114 -0.0000 0.0000 -28.3584 20.2935 16.9581 6.1558 -7.1250 0.0000 -0.0000 -7.3186 47.8539 -0.5179 -0.0000 -0.0000 0.0000 93.1387 -0.3057 -35.5107 -5.2874 9.0686 -0.4196 0.0000 0.0000 38.0314 -19.5965 30.2429 -10.1659 7.1250 -0.0000 -0.0000 6.6252 1.5840 6.8513
16.3396 18.0704 5.2130 -5.5530 -4.4713 1.2400 0.0000 0.0000 0.0000 -6.9922 -13.4908 -34.1284 2.4989 9.8360 28.4472 -0.0740 6.8128 -7.6103 1.2170 -6.9978 -19.7088 0.0000 0.0000 0.0000 28.8706 1.3169 22.1735 -0.6119 -5.0067 13.9276 -0.0570 3.7059 -4.6424 -0.7623 5.5759 -15.5586 5.9772 2.9045 -0.7240 1.9023 3.8106 -0.0466 -1.3269 1.9157 0.6171 -5.9375 -3.7728 -9.0788 2.0761 -4.5474 14.6493 1.2642 -2.3748 6.1229 0.0000 0.0000 0.0000 -73.3812 -51.3985 29.5354 23.2684 -34.3810 -7.2893 -0.0000 0.0000 -28.1775 20.8497 17.1858 6.4206 -7.1250 0.0000 -0.0000 -6.8482 48.1722 -0.5383 0.0000 0.0000 0.0000 93.2115 0.1128 -33.4754 -5.4167 9.2858 -0.4402 0.0000 0.0000 36.0373 -19.5337 29.8166 -10.0044 7.1250 -0.0000 -0.0000 6.6097 1.1392 6.7848
16.3698 18.0384 5.4437 -6.0315 -4.7582 1.2979 0.0000 0.0000 0.0000 -7.0492 -13.2429 -33.0681 2.6336 10.0769 29.2261 -0.0850 6.7003 -6.9916 1.2352 -7.0479 -19.8574 0.0000 0.0000 0.0000 29.1921 1.3313 22.5554 -0.6492 -5.1543 14.3491 -0.0204 3.8649 -3.5135 -0.7203 5.4233 -15.1199 6.3792 2.9614 -1.1120 1.9241 3.8539 -0.1389 -1.5058 1.9400 0.7672 -5.7622 -3.6984 -9.0283 2.1117 -4.4836 14.7501 1.2530 -2.3330 6.1395 0.0000 -0.0000 0.0000 -73.9144 -49.9322 29.9898 23.3035 -34.4190 -7.3091 -0.0000 0.0000 -28.1399 21.5835 16.8329 6.5351 -7.1250 0.0000 -0.0000 -6.0622 47.9093 -0.4366 0.0000 -0.0000 0.0000 93.3295 0.7395 -32.8328 -5.4235 9.2973 -0.4413 0.0000 0.0000 35.7986 -19.2638 29.2023 -9.6765 7.1250 -0.0000 -0.0000 6.6944 0.4649 6.7949
16.4035 17.9857 5.6769 -6.2483 -5.0484 1.3725 0.0000 0.0000 0.0000 -7.7758 -12.3687 -32.1496 2.7440 10.2686 29.8511 -0.0805 5.9157 -5.4803 1.2211 -7.0090 -19.7422 0.0000 0.0000 0.0000 28.9816 0.9668 22.8487 -0.6781 -5.2654 14.6671 0.0234 4.4743 -2.1609 -0.7320 5.4662 -15.2432 6.5526 3.1264 -1.4273 1.8615 4.0559 -0.3632 -1.6484 2.0362 0.7437 -5.6709 -3.8014 -8.8984 2.1936 -4.6622 14.9593 1.2502 -2.4110 6.1900 0.0000 0.0000 0.0000 -74.6045 -48.3570 31.1037 23.3644 -34.4849 -7.3436 -0.0000 0.0000 -28.2316 21.7959 16.6958 6.5536 -7.1250 0.0000 -0.0000 -5.8275 47.7957 -0.4033 0.0000 0.0000 0.0000 93.5128 0.6568 -27.8636 -5.7256 9.8037 -0.4915 0.0000 0.0000 30.5111 -18.8648 28.6461 -9.3028 7.1250 -0.0000 -0.0000 6.8653 -0.1726 6.8943
16.4366 18.0312 5.9120 -6.1712 -5.1928 1.4395 0.0000 0.0000 0.0000 -7.7260 -13.4067 -32.1155 2.8536 10.4543 30.4607 -0.1010 6.3777 -5.5298 0.7952 -5.6920 -15.8934 0.0000 0.0000 0.0000 28.3493 0.4423 22.9266 -0.7006 -5.3503 14.9104 0.0718 5.1635 -0.2786 -0.7711 5.6072 -15.6488 6.4123 3.2672 -1.6775 1.7536 4.2386 -0.6292 -1.6700 2.1190 0.6214 -5.9229 -3.9650 -8.6588 2.5758 -4.9268 15.1317 1.3933 -2.5275 6.2300 -0.0000 -0.0000 0.0000 -75.6944 -46.7151 32.1327 23.4044 -34.5281 -7.3662 -0.0000 0.0000 -27.8814 21.3973 16.9557 6.5191 -7.1250 0.0000 -0.0000 -6.2692 48.0114 -0.4675 -0.0000 -0.0000 0.0000 93.7299 -0.1646 -18.6120 -6.6168 11.2868 -0.6546 0.0000 0.0000 20.7767 -18.3087 27.4529 -8.6733 7.1250 -0.0000 -0.0000 7.0698 -1.4820 6.9380
16.4685 18.0373 6.1226 -5.6241 -5.0788 1.5116 0.0000 0.0000 0.0000 -8.2268 -14.5315 -31.8986 2.9046 10.5390 30.7405 -0.1492 7.4284 -5.8290 0.4665 -4.3807 -12.1503 0.0000 0.0000 0.0000 27.6254 0.4979 22.3933 -0.8591 -5.9106 16.5252 0.0949 5.4930 1.3295 -1.2078 6.9722 -19.6332 5.7069 3.1664 -1.8365 1.4799 4.1179 -0.8825 -1.5662 2.0499 0.4114 -5.8888 -3.9596 -8.4940 2.8984 -4.9900 15.2243 1.4875 -2.5341 6.2400 0.0000 0.0000 0.0000 -76.4257 -44.9007 32.2657 23.4662 -34.5947 -7.4013 -0.0000 0.0000 -27.1623 21.3298 16.9053 6.4781 -7.1250 0.0000 -0.0000 -6.3212 47.9485 -0.4616 0.0000 0.0000 0.0000 94.0600 0.9935 -22.3136 -6.3733 10.8833 -0.6077 0.0000 0.0000 24.5634 -18.0819 27.8843 -8.6820 7.1250 -0.0000 -0.0000 7.2470 -1.0826 7.1667
